# xmcd
#
# Track frame offsets: 
#        150
#        6429
#        10670
#        15932
#        23305
#        27682
#        32877
#        37627
#        46320
#        52985
#        59920
#        63867
#        69077
#        78877
#        83262
#        87937
#        94242
#        99105
#        108740
#        118740
#
# Disc length: 1739 seconds
#
# Revision: 2
# Processed by: cddbd v1.5.2PL0 Copyright (c) Steve Scherf et al.
# Submitted via: ExactAudioCopyFreeDBPlugin 1.0
#
DISCID=e006c914
DTITLE=親親小寶貝 - 排排坐
DYEAR=1997
DGENRE=Other
TTITLE0=排排坐
TTITLE1=幼稚園裡
TTITLE2=ABC字母歌
TTITLE3=拍拍手‧點點頭
TTITLE4=我的手和腳
TTITLE5=郵差叔叔
TTITLE6=植樹節
TTITLE7=小鴨學跳舞
TTITLE8=拔蘿蔔
TTITLE9=坐火車
TTITLE10=紅綠燈
TTITLE11=小雨點
TTITLE12=花‧草‧樹
TTITLE13=火
TTITLE14=動物歌
TTITLE15=胸襟闊
TTITLE16=如何才是好醫生
TTITLE17=玩遊戲
TTITLE18=小小演奏家
TTITLE19=莫忘我
EXTD=YEAR: 1997
EXTT0=
EXTT1=
EXTT2=
EXTT3=
EXTT4=
EXTT5=
EXTT6=
EXTT7=
EXTT8=
EXTT9=
EXTT10=
EXTT11=
EXTT12=
EXTT13=
EXTT14=
EXTT15=
EXTT16=
EXTT17=
EXTT18=
EXTT19=
PLAYORDER=
